<?xml version="1.0" encoding="UTF-8" standalone="no"?>
<!-- Created with Inkscape (http://www.inkscape.org/) -->

<svg
   width="240"
   height="40"
   viewBox="0 0 63.499999 10.583333"
   version="1.1"
   id="svg1"
   inkscape:version="1.3.1 (9b9bdc1480, 2023-11-25, custom)"
   sodipodi:docname="pandb.svg"
   xmlns:inkscape="http://www.inkscape.org/namespaces/inkscape"
   xmlns:sodipodi="http://sodipodi.sourceforge.net/DTD/sodipodi-0.dtd"
   xmlns="http://www.w3.org/2000/svg"
   xmlns:svg="http://www.w3.org/2000/svg">
  <sodipodi:namedview
     id="namedview1"
     pagecolor="#ffffff"
     bordercolor="#000000"
     borderopacity="0.25"
     inkscape:showpageshadow="2"
     inkscape:pageopacity="0.0"
     inkscape:pagecheckerboard="0"
     inkscape:deskcolor="#d1d1d1"
     inkscape:document-units="mm"
     showgrid="true"
     inkscape:zoom="5.8154882"
     inkscape:cx="125.44089"
     inkscape:cy="41.441061"
     inkscape:window-width="1839"
     inkscape:window-height="1016"
     inkscape:window-x="0"
     inkscape:window-y="0"
     inkscape:window-maximized="1"
     inkscape:current-layer="text1">
    <inkscape:grid
       id="grid1"
       units="px"
       originx="0"
       originy="0"
       spacingx="0.26458333"
       spacingy="0.26458333"
       empcolor="#0099e5"
       empopacity="0.30196078"
       color="#0099e5"
       opacity="0.14901961"
       empspacing="5"
       dotted="false"
       gridanglex="30"
       gridanglez="30"
       visible="true" />
  </sodipodi:namedview>
  <defs
     id="defs1" />
  <g
     inkscape:label="Layer 1"
     inkscape:groupmode="layer"
     id="layer1">
    <g
       id="text1"
       style="font-size:9.12835px;font-family:TypoGraphica;-inkscape-font-specification:TypoGraphica;fill:#333333;stroke-width:0.829848"
       aria-label="pinksandblacks">
      <path
         style="fill:#ff0066"
         d="m 2.7447642,6.1359654 q 0,-0.4769207 0.3565761,-0.8201257 0.352119,-0.3432037 0.8334969,-0.3432037 0.485835,0 0.837954,0.3432037 0.3565762,0.347662 0.3565762,0.8201257 0,0.3120037 -0.1649165,0.5705217 -0.1649165,0.2629747 -0.441263,0.4189767 -0.2763466,0.156003 -0.5883507,0.156003 -0.3120042,0 -0.5838935,-0.156003 Q 3.0745971,6.9694618 2.9096806,6.7064871 2.7447642,6.4524271 2.7447642,6.1359654 Z m -1.4218476,4.0471386 1.4218476,0.0045 V 8.3066232 l 0.1025156,0.04457 0.1025157,0.04457 q 0.4813778,0.1738307 0.9850417,0.1738307 0.5125782,0 0.9894989,-0.1738307 0.4724634,-0.173827 0.8424112,-0.5125747 0.3699478,-0.33429 0.5749791,-0.7800107 0.2094885,-0.4501767 0.2094885,-0.9672124 0,-0.5304067 -0.2050313,-0.9716704 Q 6.1411523,4.723032 5.7667473,4.3798277 5.3878851,4.0366232 4.9243361,3.8672495 4.4563298,3.6845042 3.9348372,3.6845042 q -0.681952,0 -1.2881315,0.3209186 Q 2.0405262,4.3218841 1.68395,4.879034 1.3273738,5.4228127 1.3229166,6.1047654 Z M 8.2494091,3.8717067 V 8.4403389 H 6.8275616 v -4.564175 z m 0.00446,-1.2925887 q 0,0.2139457 -0.098058,0.3788622 Q 8.0577531,3.1228967 7.8883789,3.2254124 7.7190052,3.327928 7.5139739,3.327928 7.3089426,3.327928 7.1440261,3.22987 6.9746493,3.1273539 6.8765908,2.9579802 6.7740752,2.7796921 6.7740752,2.579118 q 0,-0.2050313 0.098058,-0.374405 0.1069729,-0.1738309 0.2718893,-0.2718893 0.1649165,-0.098059 0.3699478,-0.098059 0.2050313,0 0.374405,0.098059 0.1649165,0.098058 0.2674322,0.2718893 0.098058,0.1693737 0.098058,0.374405 z m 2.2731699,2.397975 q 0.543779,0.02229 0.543779,0.7577237 v 2.6966082 h 1.426305 V 5.7348167 q 0,-1.9477969 -1.970084,-2.0458553 H 10.44681 Q 8.4767262,3.7870198 8.4767262,5.7348167 V 8.4314249 H 9.9030309 V 5.7348167 q 0,-0.7354377 0.5437791,-0.7577237 z m 2.192944,3.4543319 V 2.1111118 l 1.426304,-0.00446 v 3.4944469 h 0.01783 l 1.475333,-1.729392 h 1.671451 l -1.649165,1.9567117 1.938883,2.6030065 H 15.822196 L 14.146287,6.1939094 v 2.2375155 z m 5.513559,-1.4352191 q 0.423434,0.4234337 1.034071,0.4234337 0.63738,0 0.63738,-0.3744047 0,-0.196117 -0.352119,-0.2897187 -0.249603,-0.05794 -0.793382,-0.200574 -0.441263,-0.115887 -0.744353,-0.4278907 -0.298632,-0.307547 -0.298632,-0.9449274 0,-0.4902921 0.245146,-0.8290395 0.249603,-0.3387473 0.646294,-0.4992066 0.405605,-0.1649165 0.886983,-0.1649165 0.27189,0 0.552693,0.075772 0.30309,0.093601 0.543779,0.2317746 0.262975,0.1470876 0.463549,0.3298329 L 20.270483,5.106351 q -0.343204,-0.258517 -0.74881,-0.258517 -0.485835,0 -0.485835,0.271889 0,0.2451457 0.361034,0.3432047 0.396691,0.106973 0.797839,0.200574 0.441263,0.1114297 0.735438,0.4100627 0.298633,0.3030897 0.298633,0.9538414 0,0.4858347 -0.258518,0.8379537 -0.258518,0.3565757 -0.690866,0.5304067 -0.432349,0.1827447 -0.895898,0.1827447 -0.387776,0 -0.699781,-0.0624 -0.312004,-0.05794 -0.583893,-0.1961167 -0.280804,-0.138173 -0.588351,-0.369948 z"
         id="path4" />
      <path
         style="fill:#666666"
         d="m 23.038406,5.5476147 q 0.164916,-0.262975 0.441263,-0.4189767 0.276346,-0.151545 0.583893,-0.151545 0.316462,0 0.588351,0.151545 0.276346,0.1560017 0.441263,0.4189767 0.164916,0.2629747 0.164916,0.5749787 0,0.4724637 -0.356576,0.8156684 -0.352119,0.338747 -0.837954,0.338747 -0.481378,0 -0.833497,-0.338747 -0.356576,-0.3432047 -0.356576,-0.8156684 0,-0.312004 0.164917,-0.5749787 z m 2.224144,2.8838102 1.412933,0.01337 0.0045,-2.3222025 q 0,-0.5214927 -0.209489,-0.9716694 Q 26.26542,4.714118 25.891015,4.3753705 25.534439,4.0455376 25.053061,3.8672495 24.571683,3.6889614 24.063562,3.6889614 q -0.512578,0 -0.989499,0.1827453 -0.47692,0.1738309 -0.837954,0.5036638 -0.36549,0.329833 -0.574979,0.7755535 -0.209488,0.4501767 -0.209488,0.9716694 0,0.6908667 0.361033,1.2524741 0.356576,0.5526937 0.962756,0.8736117 0.606179,0.3164617 1.288131,0.3164617 0.517036,0 0.989499,-0.1827457 0.06686,-0.02229 0.209489,-0.08469 z M 28.953113,4.977093 q 0.543779,0.02229 0.543779,0.7577237 v 2.6966082 h 1.426305 V 5.7348167 q 0,-1.9477969 -1.970084,-2.0458553 h -0.08023 Q 26.9028,3.7870198 26.9028,5.7348167 v 2.6966082 h 1.426305 V 5.7348167 q 0,-0.7354377 0.543779,-0.7577237 z m 5.999395,1.1499584 q 0,-0.312005 -0.164916,-0.5705227 Q 34.622675,5.2935537 34.346329,5.137552 34.07444,4.98155 33.762435,4.98155 q -0.312004,0 -0.58835,0.156002 -0.276347,0.1560017 -0.441263,0.4189767 -0.164917,0.2585177 -0.164917,0.5705227 0,0.4769207 0.356576,0.8201244 0.352119,0.343205 0.837954,0.343205 0.481378,0 0.833497,-0.343205 0.356576,-0.3432037 0.356576,-0.8201244 z m 1.421848,0.0312 q -0.0045,0.6774944 -0.361033,1.2257301 -0.356577,0.5571507 -0.962756,0.8736117 -0.60618,0.3209177 -1.288132,0.3209177 -0.521492,0 -0.989498,-0.1827447 Q 32.309388,8.2263932 31.930525,7.8831885 31.55612,7.5399845 31.351089,7.0987208 31.146058,6.6574581 31.146058,6.1270514 q 0,-0.5170357 0.209488,-0.9672134 0.205032,-0.44572 0.574979,-0.7800103 0.374405,-0.3387473 0.842412,-0.5125782 0.481377,-0.1738309 0.989498,-0.1738309 0.503664,0 0.985042,0.1738309 l 0.102516,0.044572 0.102515,0.044572 V 2.0754542 l 1.421848,0.00446 z"
         id="path5" />
      <path
         style="fill:#1a1a1a"
         d="m 38.019064,6.1270514 q 0,0.4769207 0.356576,0.8201244 0.352119,0.343205 0.833497,0.343205 0.485835,0 0.837954,-0.343205 0.356576,-0.3432037 0.356576,-0.8201244 0,-0.312005 -0.164916,-0.5705227 Q 40.073834,5.2935537 39.797487,5.137552 39.525598,4.98155 39.209137,4.98155 q -0.307547,0 -0.583894,0.156002 -0.276346,0.1560017 -0.441263,0.4189767 -0.164916,0.2585177 -0.164916,0.5705227 z m -1.421848,-4.04714 1.421848,-0.00446 v 1.8809393 l 0.102515,-0.044572 0.102516,-0.044572 q 0.481378,-0.1738309 0.985042,-0.1738309 0.508121,0 0.989499,0.1738309 0.468006,0.1738309 0.842411,0.5125782 0.369948,0.3342901 0.574979,0.7800101 0.209489,0.4501777 0.209489,0.9672134 0,0.5304067 -0.205032,0.9716694 -0.205031,0.4412637 -0.579436,0.7844677 -0.378862,0.3432047 -0.842411,0.5125787 -0.468007,0.1827447 -0.989499,0.1827447 -0.681952,0 -1.288132,-0.3209177 Q 37.314826,7.9411322 36.95825,7.3839825 36.601673,6.8357458 36.597216,6.1582514 Z m 5.451157,0.026743 1.421847,-0.00446 v 6.3203155 l -1.421847,0.01783 z m 3.231474,3.4409603 q 0.164917,-0.262975 0.441263,-0.4189777 0.276347,-0.151544 0.583894,-0.151544 0.316461,0 0.588351,0.151544 0.276346,0.1560027 0.441263,0.4189777 0.164916,0.2629747 0.164916,0.5749787 0,0.4724637 -0.356576,0.8156684 -0.352119,0.338747 -0.837954,0.338747 -0.481378,0 -0.833497,-0.338747 -0.356576,-0.3432047 -0.356576,-0.8156684 0,-0.312004 0.164916,-0.5749787 z m 2.224144,2.8838092 1.412933,0.01337 0.0045,-2.3222015 q 0,-0.5214927 -0.209489,-0.9716704 Q 48.506862,4.714118 48.132457,4.3753705 47.775881,4.0455376 47.294503,3.8672495 46.813125,3.6889614 46.305004,3.6889614 q -0.512578,0 -0.989499,0.1827453 -0.476921,0.1738309 -0.837954,0.5036638 -0.365491,0.329833 -0.574979,0.7755535 -0.209489,0.4501767 -0.209489,0.9716694 0,0.6908667 0.361034,1.2524741 0.356576,0.5526937 0.962755,0.8736117 0.60618,0.3164617 1.288132,0.3164617 0.517035,0 0.989499,-0.1827457 0.06686,-0.02229 0.209488,-0.08469 z M 52.656515,5.2445247 Q 52.464856,5.084065 52.237538,5.003836 q -0.236231,-0.08023 -0.499206,-0.08023 -0.490293,0 -0.82904,0.3164617 -0.343204,0.316461 -0.343204,0.7844667 0,0.3654907 0.147087,0.6552087 0.142631,0.2897187 0.423434,0.4590927 0.27189,0.17383 0.628466,0.17383 0.52595,0 0.900355,-0.33429 l 0.78001,0.9894994 q -0.169373,0.178288 -0.472463,0.316461 -0.307547,0.1381727 -0.632923,0.2050307 -0.325376,0.06686 -0.601722,0.06686 -0.775553,0 -1.368361,-0.3253747 -0.592808,-0.329833 -0.90927,-0.8646977 -0.316461,-0.5437784 -0.316461,-1.1633291 0,-0.5660647 0.19166,-1.0251574 0.196117,-0.468006 0.539321,-0.802296 0.338748,-0.3253757 0.824583,-0.5125782 0.481377,-0.1827453 1.038528,-0.1827453 0.454634,0 0.886983,0.1426305 0.436806,0.1470876 0.771096,0.4145198 z m 1.011784,3.1868992 V 2.1111118 l 1.426305,-0.00446 v 3.4944469 h 0.01783 l 1.475334,-1.7293948 h 1.671451 l -1.649165,1.9567115 1.938883,2.6030065 H 56.770512 L 55.094604,6.1939094 v 2.2375155 z m 5.51356,-1.4352191 q 0.423434,0.4234347 1.03407,0.4234347 0.63738,0 0.63738,-0.3744047 0,-0.196117 -0.352119,-0.2897187 -0.249603,-0.05794 -0.793382,-0.200574 -0.441263,-0.115887 -0.744352,-0.4278907 -0.298633,-0.307547 -0.298633,-0.9449274 0,-0.4902921 0.245146,-0.8290395 0.249604,-0.3387473 0.646295,-0.4992066 0.405605,-0.1649165 0.886983,-0.1649165 0.271889,0 0.552693,0.075772 0.30309,0.093601 0.543779,0.2317746 0.262974,0.1470876 0.463549,0.3298329 L 61.2188,5.106352 q -0.343205,-0.258518 -0.74881,-0.258518 -0.485835,0 -0.485835,0.271889 0,0.2451467 0.361033,0.3432047 0.396691,0.106973 0.79784,0.200574 0.441263,0.1114307 0.735438,0.4100627 0.298632,0.3030897 0.298632,0.9538414 0,0.4858347 -0.258517,0.8379537 -0.258518,0.3565767 -0.690867,0.5304077 -0.432348,0.1827447 -0.895897,0.1827447 -0.387777,0 -0.699781,-0.0624 -0.312004,-0.05794 -0.583894,-0.1961177 -0.280803,-0.138173 -0.58835,-0.369947 z"
         id="path6" />
    </g>
  </g>
</svg>
